<svg width="296" height="397" viewBox="0 0 296 397" fill="none" xmlns="http://www.w3.org/2000/svg">
<g filter="url(#filter0_d_203_15)">
<path fill-rule="evenodd" clip-rule="evenodd" d="M11 69H96.7981V74H11V159.457H6V74V69H11ZM6 261.861V348V353H11H96.7981V348H11V261.861H6ZM285 261.861V348H199.202V353H285H290V348V261.861H285ZM290 159.457V74V69H285H199.202V74H285V159.457H290Z" fill="white"/>
</g>
<g filter="url(#filter1_d_203_15)">
<path d="M97.7386 364.631V361.818H117.375V364.631H109.142V388H105.972V364.631H97.7386ZM121.859 388V368.364H124.876V388H121.859ZM123.393 365.091C122.805 365.091 122.298 364.891 121.872 364.49C121.454 364.089 121.245 363.608 121.245 363.045C121.245 362.483 121.454 362.001 121.872 361.601C122.298 361.2 122.805 361 123.393 361C123.981 361 124.484 361.2 124.902 361.601C125.328 362.001 125.541 362.483 125.541 363.045C125.541 363.608 125.328 364.089 124.902 364.49C124.484 364.891 123.981 365.091 123.393 365.091ZM138.379 388.409C136.538 388.409 134.953 387.974 133.624 387.105C132.294 386.236 131.271 385.038 130.555 383.513C129.839 381.987 129.482 380.244 129.482 378.284C129.482 376.29 129.848 374.53 130.581 373.004C131.322 371.47 132.354 370.273 133.675 369.412C135.004 368.543 136.555 368.108 138.328 368.108C139.709 368.108 140.953 368.364 142.061 368.875C143.169 369.386 144.077 370.102 144.784 371.023C145.491 371.943 145.93 373.017 146.101 374.244H143.084C142.854 373.349 142.342 372.557 141.55 371.866C140.766 371.168 139.709 370.818 138.379 370.818C137.203 370.818 136.172 371.125 135.286 371.739C134.408 372.344 133.722 373.2 133.227 374.308C132.741 375.408 132.499 376.699 132.499 378.182C132.499 379.699 132.737 381.02 133.214 382.145C133.7 383.27 134.382 384.143 135.26 384.766C136.146 385.388 137.186 385.699 138.379 385.699C139.163 385.699 139.875 385.562 140.514 385.29C141.153 385.017 141.695 384.625 142.138 384.114C142.581 383.602 142.896 382.989 143.084 382.273H146.101C145.93 383.432 145.509 384.476 144.835 385.405C144.17 386.325 143.288 387.058 142.189 387.604C141.098 388.141 139.828 388.409 138.379 388.409ZM153.324 380.841L153.273 377.108H153.886L162.477 368.364H166.21L157.057 377.619H156.801L153.324 380.841ZM150.511 388V361.818H153.528V388H150.511ZM162.989 388L155.318 378.284L157.466 376.188L166.824 388H162.989ZM177.518 388.409C175.626 388.409 173.994 387.991 172.621 387.156C171.258 386.312 170.205 385.136 169.464 383.628C168.731 382.111 168.364 380.347 168.364 378.335C168.364 376.324 168.731 374.551 169.464 373.017C170.205 371.474 171.237 370.273 172.558 369.412C173.887 368.543 175.438 368.108 177.211 368.108C178.234 368.108 179.244 368.278 180.241 368.619C181.238 368.96 182.146 369.514 182.964 370.281C183.782 371.04 184.434 372.045 184.92 373.298C185.406 374.551 185.648 376.094 185.648 377.926V379.205H170.512V376.597H182.58C182.58 375.489 182.359 374.5 181.915 373.631C181.481 372.761 180.859 372.075 180.049 371.572C179.248 371.07 178.302 370.818 177.211 370.818C176.009 370.818 174.969 371.116 174.092 371.713C173.222 372.301 172.553 373.068 172.085 374.014C171.616 374.96 171.381 375.974 171.381 377.057V378.795C171.381 380.278 171.637 381.536 172.148 382.567C172.668 383.589 173.388 384.369 174.309 384.906C175.229 385.435 176.299 385.699 177.518 385.699C178.31 385.699 179.026 385.588 179.665 385.366C180.313 385.136 180.871 384.795 181.34 384.344C181.809 383.884 182.171 383.312 182.427 382.631L185.342 383.449C185.035 384.438 184.519 385.307 183.795 386.057C183.07 386.798 182.175 387.378 181.11 387.795C180.045 388.205 178.847 388.409 177.518 388.409ZM198.778 368.364V370.92H188.602V368.364H198.778ZM191.567 363.659H194.585V382.375C194.585 383.227 194.708 383.866 194.955 384.293C195.211 384.71 195.535 384.991 195.927 385.136C196.327 385.273 196.749 385.341 197.192 385.341C197.525 385.341 197.798 385.324 198.011 385.29C198.224 385.247 198.394 385.213 198.522 385.188L199.136 387.898C198.931 387.974 198.646 388.051 198.279 388.128C197.913 388.213 197.448 388.256 196.886 388.256C196.033 388.256 195.198 388.072 194.38 387.706C193.57 387.339 192.897 386.781 192.36 386.031C191.832 385.281 191.567 384.335 191.567 383.193V363.659Z" fill="white"/>
</g>
<g filter="url(#filter2_d_203_15)">
<path d="M113.885 21.1818C113.675 19.4126 112.826 18.0391 111.336 17.0613C109.846 16.0836 108.018 15.5947 105.853 15.5947C104.27 15.5947 102.885 15.8508 101.698 16.3629C100.522 16.8751 99.6029 17.5793 98.9394 18.4756C98.2876 19.3718 97.9616 20.3903 97.9616 21.531C97.9616 22.4855 98.1886 23.3061 98.6426 23.9928C99.1082 24.6679 99.7018 25.2325 100.423 25.6864C101.145 26.1287 101.902 26.4954 102.693 26.7864C103.485 27.0658 104.212 27.2927 104.876 27.4673L108.507 28.4451C109.439 28.6895 110.474 29.0271 111.615 29.4577C112.768 29.8884 113.867 30.4762 114.915 31.2212C115.974 31.9545 116.847 32.8973 117.534 34.0497C118.221 35.202 118.564 36.6162 118.564 38.2924C118.564 40.2246 118.058 41.9706 117.045 43.5303C116.044 45.09 114.578 46.3297 112.645 47.2492C110.725 48.1688 108.391 48.6286 105.644 48.6286C103.083 48.6286 100.866 48.2153 98.9918 47.3889C97.1294 46.5625 95.6628 45.4101 94.5919 43.9319C93.5327 42.4536 92.9332 40.7367 92.7936 38.7813H97.2633C97.3797 40.1315 97.8336 41.2489 98.6251 42.1335C99.4283 43.0065 100.441 43.6583 101.663 44.089C102.897 44.508 104.224 44.7176 105.644 44.7176C107.297 44.7176 108.781 44.4499 110.096 43.9144C111.411 43.3673 112.453 42.6108 113.221 41.6446C113.99 40.6669 114.374 39.5262 114.374 38.2225C114.374 37.0353 114.042 36.0692 113.379 35.3242C112.715 34.5793 111.842 33.974 110.76 33.5084C109.677 33.0428 108.507 32.6354 107.25 32.2862L102.85 31.0291C100.057 30.226 97.8452 29.0794 96.2157 27.5895C94.5861 26.0996 93.7713 24.15 93.7713 21.7405C93.7713 19.7385 94.3126 17.9925 95.3951 16.5026C96.4892 15.0011 97.9558 13.8371 99.7949 13.0107C101.646 12.1726 103.712 11.7536 105.993 11.7536C108.298 11.7536 110.346 12.1668 112.139 12.9932C113.932 13.808 115.352 14.9254 116.399 16.3455C117.458 17.7655 118.017 19.3776 118.075 21.1818H113.885ZM136.02 48.5587C133.505 48.5587 131.34 47.9651 129.525 46.7778C127.709 45.5906 126.312 43.9552 125.334 41.8716C124.356 39.7881 123.868 37.4077 123.868 34.7306C123.868 32.0069 124.368 29.6032 125.369 27.5197C126.382 25.4245 127.79 23.7891 129.594 22.6135C131.41 21.4263 133.529 20.8326 135.95 20.8326C137.835 20.8326 139.535 21.1818 141.048 21.8802C142.561 22.5786 143.801 23.5563 144.767 24.8134C145.733 26.0705 146.332 27.5372 146.565 29.2133H142.445C142.13 27.9911 141.432 26.9086 140.35 25.9658C139.279 25.0113 137.835 24.5341 136.02 24.5341C134.413 24.5341 133.005 24.9531 131.794 25.7912C130.595 26.6176 129.658 27.7874 128.983 29.3006C128.32 30.8021 127.988 32.5656 127.988 34.5909C127.988 36.6628 128.314 38.467 128.966 40.0034C129.629 41.5399 130.56 42.733 131.759 43.5827C132.97 44.4324 134.39 44.8572 136.02 44.8572C137.09 44.8572 138.062 44.671 138.935 44.2985C139.808 43.9261 140.547 43.3906 141.153 42.6922C141.758 41.9938 142.189 41.1558 142.445 40.178H146.565C146.332 41.761 145.756 43.1869 144.837 44.4557C143.929 45.7128 142.724 46.7138 141.223 47.4587C139.733 48.1921 137.998 48.5587 136.02 48.5587ZM160.481 48.6286C158.781 48.6286 157.239 48.3085 155.854 47.6683C154.469 47.0164 153.369 46.0794 152.554 44.8572C151.739 43.6234 151.332 42.1335 151.332 40.3875C151.332 38.8511 151.634 37.6056 152.24 36.6512C152.845 35.6851 153.654 34.9285 154.667 34.3814C155.679 33.8343 156.797 33.4269 158.019 33.1592C159.253 32.8799 160.492 32.6587 161.738 32.4957C163.367 32.2862 164.688 32.1291 165.701 32.0243C166.725 31.9079 167.47 31.7159 167.936 31.4482C168.413 31.1804 168.652 30.7148 168.652 30.0514V29.9117C168.652 28.189 168.18 26.8504 167.238 25.896C166.306 24.9415 164.892 24.4643 162.995 24.4643C161.028 24.4643 159.485 24.8949 158.368 25.7563C157.251 26.6176 156.465 27.5372 156.011 28.5149L152.1 27.1181C152.798 25.4886 153.73 24.2198 154.894 23.3119C156.069 22.3924 157.35 21.7522 158.735 21.3913C160.131 21.0189 161.505 20.8326 162.855 20.8326C163.717 20.8326 164.706 20.9374 165.823 21.1469C166.952 21.3448 168.041 21.758 169.088 22.3865C170.148 23.0151 171.026 23.9637 171.725 25.2325C172.423 26.5012 172.772 28.2006 172.772 30.3307V48H168.652V44.3684H168.442C168.163 44.9504 167.697 45.5731 167.046 46.2366C166.394 46.9 165.527 47.4646 164.444 47.9302C163.362 48.3958 162.04 48.6286 160.481 48.6286ZM161.109 44.9271C162.739 44.9271 164.112 44.607 165.23 43.9668C166.359 43.3266 167.208 42.5002 167.779 41.4875C168.361 40.4748 168.652 39.4098 168.652 38.2924V34.5211C168.477 34.7306 168.093 34.9226 167.499 35.0972C166.917 35.2602 166.242 35.4057 165.474 35.5337C164.718 35.6501 163.978 35.7549 163.257 35.848C162.547 35.9295 161.971 35.9993 161.528 36.0575C160.457 36.1972 159.456 36.4242 158.525 36.7385C157.606 37.0411 156.861 37.5009 156.29 38.1178C155.732 38.7231 155.452 39.5495 155.452 40.5971C155.452 42.0288 155.982 43.1113 157.041 43.8446C158.112 44.5662 159.468 44.9271 161.109 44.9271ZM184.414 31.8672V48H180.293V21.1818H184.274V25.3722H184.623C185.252 24.0103 186.206 22.9162 187.487 22.0897C188.767 21.2517 190.42 20.8326 192.445 20.8326C194.261 20.8326 195.85 21.2051 197.212 21.95C198.573 22.6834 199.633 23.8008 200.389 25.3023C201.146 26.7922 201.524 28.6779 201.524 30.9593V48H197.404V31.2386C197.404 29.1318 196.857 27.4906 195.762 26.315C194.668 25.1277 193.167 24.5341 191.258 24.5341C189.943 24.5341 188.767 24.8193 187.731 25.3896C186.707 25.96 185.898 26.7922 185.304 27.8864C184.71 28.9805 184.414 30.3074 184.414 31.8672Z" fill="white"/>
</g>
<g filter="url(#filter3_d_203_15)">
<path d="M156.555 221.8L148.5 216.625L140.445 221.8L142.875 212.53L135.472 206.5L145.035 205.915L148.5 197.05L151.965 205.915L161.528 206.5L154.125 212.53M166.5 211C166.5 209.807 166.974 208.662 167.818 207.818C168.662 206.974 169.807 206.5 171 206.5V197.5C171 196.307 170.526 195.162 169.682 194.318C168.838 193.474 167.693 193 166.5 193H130.5C129.307 193 128.162 193.474 127.318 194.318C126.474 195.162 126 196.307 126 197.5V206.5C127.193 206.5 128.338 206.974 129.182 207.818C130.026 208.662 130.5 209.807 130.5 211C130.5 212.193 130.026 213.338 129.182 214.182C128.338 215.026 127.193 215.5 126 215.5V224.5C126 225.693 126.474 226.838 127.318 227.682C128.162 228.526 129.307 229 130.5 229H166.5C167.693 229 168.838 228.526 169.682 227.682C170.526 226.838 171 225.693 171 224.5V215.5C169.807 215.5 168.662 215.026 167.818 214.182C166.974 213.338 166.5 212.193 166.5 211Z" fill="white"/>
</g>
<defs>
<filter id="filter0_d_203_15" x="0" y="63" width="296" height="296" filterUnits="userSpaceOnUse" color-interpolation-filters="sRGB">
<feFlood flood-opacity="0" result="BackgroundImageFix"/>
<feColorMatrix in="SourceAlpha" type="matrix" values="0 0 0 0 0 0 0 0 0 0 0 0 0 0 0 0 0 0 127 0" result="hardAlpha"/>
<feOffset/>
<feGaussianBlur stdDeviation="3"/>
<feComposite in2="hardAlpha" operator="out"/>
<feColorMatrix type="matrix" values="0 0 0 0 0 0 0 0 0 0 0 0 0 0 0 0 0 0 0.75 0"/>
<feBlend mode="normal" in2="BackgroundImageFix" result="effect1_dropShadow_203_15"/>
<feBlend mode="normal" in="SourceGraphic" in2="effect1_dropShadow_203_15" result="shape"/>
</filter>
<filter id="filter1_d_203_15" x="91.7386" y="355" width="113.397" height="39.4091" filterUnits="userSpaceOnUse" color-interpolation-filters="sRGB">
<feFlood flood-opacity="0" result="BackgroundImageFix"/>
<feColorMatrix in="SourceAlpha" type="matrix" values="0 0 0 0 0 0 0 0 0 0 0 0 0 0 0 0 0 0 127 0" result="hardAlpha"/>
<feOffset/>
<feGaussianBlur stdDeviation="3"/>
<feComposite in2="hardAlpha" operator="out"/>
<feColorMatrix type="matrix" values="0 0 0 0 0 0 0 0 0 0 0 0 0 0 0 0 0 0 0.75 0"/>
<feBlend mode="normal" in2="BackgroundImageFix" result="effect1_dropShadow_203_15"/>
<feBlend mode="normal" in="SourceGraphic" in2="effect1_dropShadow_203_15" result="shape"/>
</filter>
<filter id="filter2_d_203_15" x="86.7936" y="5.75354" width="120.731" height="48.875" filterUnits="userSpaceOnUse" color-interpolation-filters="sRGB">
<feFlood flood-opacity="0" result="BackgroundImageFix"/>
<feColorMatrix in="SourceAlpha" type="matrix" values="0 0 0 0 0 0 0 0 0 0 0 0 0 0 0 0 0 0 127 0" result="hardAlpha"/>
<feOffset/>
<feGaussianBlur stdDeviation="3"/>
<feComposite in2="hardAlpha" operator="out"/>
<feColorMatrix type="matrix" values="0 0 0 0 0 0 0 0 0 0 0 0 0 0 0 0 0 0 0.75 0"/>
<feBlend mode="normal" in2="BackgroundImageFix" result="effect1_dropShadow_203_15"/>
<feBlend mode="normal" in="SourceGraphic" in2="effect1_dropShadow_203_15" result="shape"/>
</filter>
<filter id="filter3_d_203_15" x="120" y="187" width="57" height="48" filterUnits="userSpaceOnUse" color-interpolation-filters="sRGB">
<feFlood flood-opacity="0" result="BackgroundImageFix"/>
<feColorMatrix in="SourceAlpha" type="matrix" values="0 0 0 0 0 0 0 0 0 0 0 0 0 0 0 0 0 0 127 0" result="hardAlpha"/>
<feOffset/>
<feGaussianBlur stdDeviation="3"/>
<feComposite in2="hardAlpha" operator="out"/>
<feColorMatrix type="matrix" values="0 0 0 0 0 0 0 0 0 0 0 0 0 0 0 0 0 0 0.75 0"/>
<feBlend mode="normal" in2="BackgroundImageFix" result="effect1_dropShadow_203_15"/>
<feBlend mode="normal" in="SourceGraphic" in2="effect1_dropShadow_203_15" result="shape"/>
</filter>
</defs>
</svg>