<svg width="296" height="402" viewBox="0 0 296 402" fill="none" xmlns="http://www.w3.org/2000/svg">
<g filter="url(#filter0_d_203_15)">
<path fill-rule="evenodd" clip-rule="evenodd" d="M11 69H96.7981V74H11V159.457H6V74V69H11ZM6 261.861V348V353H11H96.7981V348H11V261.861H6ZM285 261.861V348H199.202V353H285H290V348V261.861H285ZM290 159.457V74V69H285H199.202V74H285V159.457H290Z" fill="white"/>
</g>
<g filter="url(#filter1_d_203_15)">
<path d="M67.1705 388V361.818H70.3409V374.807H70.6477L82.4091 361.818H86.5511L75.5568 373.631L86.5511 388H82.7159L73.6136 375.83L70.3409 379.511V388H67.1705ZM96.7816 388.409C95.0089 388.409 93.4535 387.987 92.1154 387.143C90.7859 386.3 89.7461 385.119 88.9961 383.602C88.2546 382.085 87.8839 380.312 87.8839 378.284C87.8839 376.239 88.2546 374.453 88.9961 372.928C89.7461 371.402 90.7859 370.217 92.1154 369.374C93.4535 368.53 95.0089 368.108 96.7816 368.108C98.5543 368.108 100.105 368.53 101.435 369.374C102.773 370.217 103.813 371.402 104.554 372.928C105.304 374.453 105.679 376.239 105.679 378.284C105.679 380.312 105.304 382.085 104.554 383.602C103.813 385.119 102.773 386.3 101.435 387.143C100.105 387.987 98.5543 388.409 96.7816 388.409ZM96.7816 385.699C98.1282 385.699 99.2362 385.354 100.105 384.663C100.975 383.973 101.618 383.065 102.036 381.94C102.453 380.815 102.662 379.597 102.662 378.284C102.662 376.972 102.453 375.749 102.036 374.615C101.618 373.482 100.975 372.565 100.105 371.866C99.2362 371.168 98.1282 370.818 96.7816 370.818C95.435 370.818 94.3271 371.168 93.4577 371.866C92.5884 372.565 91.945 373.482 91.5273 374.615C91.1097 375.749 90.9009 376.972 90.9009 378.284C90.9009 379.597 91.1097 380.815 91.5273 381.94C91.945 383.065 92.5884 383.973 93.4577 384.663C94.3271 385.354 95.435 385.699 96.7816 385.699ZM110.285 395.364V368.364H113.2V371.483H113.558C113.779 371.142 114.086 370.707 114.478 370.179C114.879 369.642 115.45 369.165 116.191 368.747C116.941 368.321 117.955 368.108 119.234 368.108C120.887 368.108 122.344 368.521 123.606 369.348C124.867 370.175 125.852 371.347 126.559 372.864C127.266 374.381 127.62 376.17 127.62 378.233C127.62 380.312 127.266 382.115 126.559 383.641C125.852 385.158 124.871 386.334 123.619 387.169C122.366 387.996 120.921 388.409 119.285 388.409C118.023 388.409 117.013 388.2 116.255 387.783C115.496 387.357 114.913 386.875 114.504 386.338C114.094 385.793 113.779 385.341 113.558 384.983H113.302V395.364H110.285ZM113.251 378.182C113.251 379.665 113.468 380.973 113.903 382.107C114.337 383.232 114.972 384.114 115.808 384.753C116.643 385.384 117.665 385.699 118.876 385.699C120.137 385.699 121.19 385.366 122.033 384.702C122.886 384.028 123.525 383.125 123.951 381.991C124.386 380.849 124.603 379.58 124.603 378.182C124.603 376.801 124.39 375.557 123.964 374.449C123.546 373.332 122.911 372.45 122.059 371.803C121.215 371.146 120.154 370.818 118.876 370.818C117.648 370.818 116.617 371.129 115.782 371.751C114.947 372.365 114.316 373.226 113.89 374.334C113.464 375.433 113.251 376.716 113.251 378.182ZM140.967 368.364V370.92H130.381V368.364H140.967ZM133.552 388V365.653C133.552 364.528 133.816 363.591 134.344 362.841C134.873 362.091 135.559 361.528 136.403 361.153C137.246 360.778 138.137 360.591 139.075 360.591C139.816 360.591 140.421 360.651 140.89 360.77C141.359 360.889 141.708 361 141.938 361.102L141.069 363.71C140.915 363.659 140.702 363.595 140.43 363.518C140.165 363.442 139.816 363.403 139.381 363.403C138.384 363.403 137.664 363.655 137.221 364.158C136.786 364.661 136.569 365.398 136.569 366.369V388H133.552ZM148.212 376.188V388H145.195V361.818H148.212V371.432H148.468C148.928 370.418 149.618 369.612 150.539 369.016C151.468 368.411 152.703 368.108 154.246 368.108C155.584 368.108 156.756 368.376 157.762 368.913C158.767 369.442 159.547 370.256 160.101 371.355C160.664 372.446 160.945 373.835 160.945 375.523V388H157.928V375.727C157.928 374.168 157.523 372.962 156.713 372.109C155.912 371.249 154.8 370.818 153.377 370.818C152.388 370.818 151.502 371.027 150.718 371.445C149.942 371.862 149.328 372.472 148.877 373.273C148.434 374.074 148.212 375.045 148.212 376.188ZM174.442 388.409C172.669 388.409 171.114 387.987 169.776 387.143C168.446 386.3 167.406 385.119 166.656 383.602C165.915 382.085 165.544 380.312 165.544 378.284C165.544 376.239 165.915 374.453 166.656 372.928C167.406 371.402 168.446 370.217 169.776 369.374C171.114 368.53 172.669 368.108 174.442 368.108C176.214 368.108 177.766 368.53 179.095 369.374C180.433 370.217 181.473 371.402 182.214 372.928C182.964 374.453 183.339 376.239 183.339 378.284C183.339 380.312 182.964 382.085 182.214 383.602C181.473 385.119 180.433 386.3 179.095 387.143C177.766 387.987 176.214 388.409 174.442 388.409ZM174.442 385.699C175.788 385.699 176.896 385.354 177.766 384.663C178.635 383.973 179.278 383.065 179.696 381.94C180.114 380.815 180.322 379.597 180.322 378.284C180.322 376.972 180.114 375.749 179.696 374.615C179.278 373.482 178.635 372.565 177.766 371.866C176.896 371.168 175.788 370.818 174.442 370.818C173.095 370.818 171.987 371.168 171.118 371.866C170.249 372.565 169.605 373.482 169.188 374.615C168.77 375.749 168.561 376.972 168.561 378.284C168.561 379.597 168.77 380.815 169.188 381.94C169.605 383.065 170.249 383.973 171.118 384.663C171.987 385.354 173.095 385.699 174.442 385.699ZM170.76 365.091C170.223 365.091 169.746 364.886 169.328 364.477C168.919 364.06 168.714 363.582 168.714 363.045C168.714 362.457 168.919 361.972 169.328 361.588C169.746 361.196 170.223 361 170.76 361C171.348 361 171.834 361.196 172.217 361.588C172.609 361.972 172.805 362.457 172.805 363.045C172.805 363.582 172.609 364.06 172.217 364.477C171.834 364.886 171.348 365.091 170.76 365.091ZM178.124 365.091C177.587 365.091 177.109 364.886 176.692 364.477C176.283 364.06 176.078 363.582 176.078 363.045C176.078 362.457 176.283 361.972 176.692 361.588C177.109 361.196 177.587 361 178.124 361C178.712 361 179.197 361.196 179.581 361.588C179.973 361.972 180.169 362.457 180.169 363.045C180.169 363.582 179.973 364.06 179.581 364.477C179.197 364.886 178.712 365.091 178.124 365.091ZM187.945 388V368.364H190.86V371.33H191.064C191.422 370.358 192.07 369.57 193.007 368.964C193.945 368.359 195.002 368.057 196.178 368.057C196.4 368.057 196.676 368.061 197.009 368.07C197.341 368.078 197.593 368.091 197.763 368.108V371.176C197.661 371.151 197.426 371.112 197.06 371.061C196.702 371.001 196.323 370.972 195.922 370.972C194.968 370.972 194.115 371.172 193.365 371.572C192.624 371.964 192.036 372.51 191.601 373.209C191.175 373.899 190.962 374.687 190.962 375.574V388H187.945ZM208.975 388.409C207.083 388.409 205.451 387.991 204.078 387.156C202.715 386.312 201.662 385.136 200.921 383.628C200.188 382.111 199.821 380.347 199.821 378.335C199.821 376.324 200.188 374.551 200.921 373.017C201.662 371.474 202.694 370.273 204.015 369.412C205.344 368.543 206.895 368.108 208.668 368.108C209.691 368.108 210.701 368.278 211.698 368.619C212.695 368.96 213.603 369.514 214.421 370.281C215.239 371.04 215.891 372.045 216.377 373.298C216.863 374.551 217.105 376.094 217.105 377.926V379.205H201.969V376.597H214.037C214.037 375.489 213.816 374.5 213.373 373.631C212.938 372.761 212.316 372.075 211.506 371.572C210.705 371.07 209.759 370.818 208.668 370.818C207.466 370.818 206.426 371.116 205.549 371.713C204.679 372.301 204.01 373.068 203.542 374.014C203.073 374.96 202.838 375.974 202.838 377.057V378.795C202.838 380.278 203.094 381.536 203.605 382.567C204.125 383.589 204.846 384.369 205.766 384.906C206.686 385.435 207.756 385.699 208.975 385.699C209.767 385.699 210.483 385.588 211.123 385.366C211.77 385.136 212.328 384.795 212.797 384.344C213.266 383.884 213.628 383.312 213.884 382.631L216.799 383.449C216.492 384.438 215.976 385.307 215.252 386.057C214.527 386.798 213.632 387.378 212.567 387.795C211.502 388.205 210.304 388.409 208.975 388.409ZM221.695 388V368.364H224.61V371.33H224.814C225.172 370.358 225.82 369.57 226.757 368.964C227.695 368.359 228.752 368.057 229.928 368.057C230.15 368.057 230.426 368.061 230.759 368.07C231.091 368.078 231.343 368.091 231.513 368.108V371.176C231.411 371.151 231.176 371.112 230.81 371.061C230.452 371.001 230.073 370.972 229.672 370.972C228.718 370.972 227.865 371.172 227.115 371.572C226.374 371.964 225.786 372.51 225.351 373.209C224.925 373.899 224.712 374.687 224.712 375.574V388H221.695Z" fill="white"/>
</g>
<g filter="url(#filter2_d_203_15)">
<path d="M113.885 21.1818C113.675 19.4126 112.826 18.0391 111.336 17.0613C109.846 16.0836 108.018 15.5947 105.853 15.5947C104.27 15.5947 102.885 15.8508 101.698 16.3629C100.522 16.8751 99.6029 17.5793 98.9394 18.4756C98.2876 19.3718 97.9616 20.3903 97.9616 21.531C97.9616 22.4855 98.1886 23.3061 98.6426 23.9928C99.1082 24.6679 99.7018 25.2325 100.423 25.6864C101.145 26.1287 101.902 26.4954 102.693 26.7864C103.485 27.0658 104.212 27.2927 104.876 27.4673L108.507 28.4451C109.439 28.6895 110.474 29.0271 111.615 29.4577C112.768 29.8884 113.867 30.4762 114.915 31.2212C115.974 31.9545 116.847 32.8973 117.534 34.0497C118.221 35.202 118.564 36.6162 118.564 38.2924C118.564 40.2246 118.058 41.9706 117.045 43.5303C116.044 45.09 114.578 46.3297 112.645 47.2492C110.725 48.1688 108.391 48.6286 105.644 48.6286C103.083 48.6286 100.866 48.2153 98.9918 47.3889C97.1294 46.5625 95.6628 45.4101 94.5919 43.9319C93.5327 42.4536 92.9332 40.7367 92.7936 38.7813H97.2633C97.3797 40.1315 97.8336 41.2489 98.6251 42.1335C99.4283 43.0065 100.441 43.6583 101.663 44.089C102.897 44.508 104.224 44.7176 105.644 44.7176C107.297 44.7176 108.781 44.4499 110.096 43.9144C111.411 43.3673 112.453 42.6108 113.221 41.6446C113.99 40.6669 114.374 39.5262 114.374 38.2225C114.374 37.0353 114.042 36.0692 113.379 35.3242C112.715 34.5793 111.842 33.974 110.76 33.5084C109.677 33.0428 108.507 32.6354 107.25 32.2862L102.85 31.0291C100.057 30.226 97.8452 29.0794 96.2157 27.5895C94.5861 26.0996 93.7713 24.15 93.7713 21.7405C93.7713 19.7385 94.3126 17.9925 95.3951 16.5026C96.4892 15.0011 97.9558 13.8371 99.7949 13.0107C101.646 12.1726 103.712 11.7536 105.993 11.7536C108.298 11.7536 110.346 12.1668 112.139 12.9932C113.932 13.808 115.352 14.9254 116.399 16.3455C117.458 17.7655 118.017 19.3776 118.075 21.1818H113.885ZM136.02 48.5587C133.505 48.5587 131.34 47.9651 129.525 46.7778C127.709 45.5906 126.312 43.9552 125.334 41.8716C124.356 39.7881 123.868 37.4077 123.868 34.7306C123.868 32.0069 124.368 29.6032 125.369 27.5197C126.382 25.4245 127.79 23.7891 129.594 22.6135C131.41 21.4263 133.529 20.8326 135.95 20.8326C137.835 20.8326 139.535 21.1818 141.048 21.8802C142.561 22.5786 143.801 23.5563 144.767 24.8134C145.733 26.0705 146.332 27.5372 146.565 29.2133H142.445C142.13 27.9911 141.432 26.9086 140.35 25.9658C139.279 25.0113 137.835 24.5341 136.02 24.5341C134.413 24.5341 133.005 24.9531 131.794 25.7912C130.595 26.6176 129.658 27.7874 128.983 29.3006C128.32 30.8021 127.988 32.5656 127.988 34.5909C127.988 36.6628 128.314 38.467 128.966 40.0034C129.629 41.5399 130.56 42.733 131.759 43.5827C132.97 44.4324 134.39 44.8572 136.02 44.8572C137.09 44.8572 138.062 44.671 138.935 44.2985C139.808 43.9261 140.547 43.3906 141.153 42.6922C141.758 41.9938 142.189 41.1558 142.445 40.178H146.565C146.332 41.761 145.756 43.1869 144.837 44.4557C143.929 45.7128 142.724 46.7138 141.223 47.4587C139.733 48.1921 137.998 48.5587 136.02 48.5587ZM160.481 48.6286C158.781 48.6286 157.239 48.3085 155.854 47.6683C154.469 47.0164 153.369 46.0794 152.554 44.8572C151.739 43.6234 151.332 42.1335 151.332 40.3875C151.332 38.8511 151.634 37.6056 152.24 36.6512C152.845 35.6851 153.654 34.9285 154.667 34.3814C155.679 33.8343 156.797 33.4269 158.019 33.1592C159.253 32.8799 160.492 32.6587 161.738 32.4957C163.367 32.2862 164.688 32.1291 165.701 32.0243C166.725 31.9079 167.47 31.7159 167.936 31.4482C168.413 31.1804 168.652 30.7148 168.652 30.0514V29.9117C168.652 28.189 168.18 26.8504 167.238 25.896C166.306 24.9415 164.892 24.4643 162.995 24.4643C161.028 24.4643 159.485 24.8949 158.368 25.7563C157.251 26.6176 156.465 27.5372 156.011 28.5149L152.1 27.1181C152.798 25.4886 153.73 24.2198 154.894 23.3119C156.069 22.3924 157.35 21.7522 158.735 21.3913C160.131 21.0189 161.505 20.8326 162.855 20.8326C163.717 20.8326 164.706 20.9374 165.823 21.1469C166.952 21.3448 168.041 21.758 169.088 22.3865C170.148 23.0151 171.026 23.9637 171.725 25.2325C172.423 26.5012 172.772 28.2006 172.772 30.3307V48H168.652V44.3684H168.442C168.163 44.9504 167.697 45.5731 167.046 46.2366C166.394 46.9 165.527 47.4646 164.444 47.9302C163.362 48.3958 162.04 48.6286 160.481 48.6286ZM161.109 44.9271C162.739 44.9271 164.112 44.607 165.23 43.9668C166.359 43.3266 167.208 42.5002 167.779 41.4875C168.361 40.4748 168.652 39.4098 168.652 38.2924V34.5211C168.477 34.7306 168.093 34.9226 167.499 35.0972C166.917 35.2602 166.242 35.4057 165.474 35.5337C164.718 35.6501 163.978 35.7549 163.257 35.848C162.547 35.9295 161.971 35.9993 161.528 36.0575C160.457 36.1972 159.456 36.4242 158.525 36.7385C157.606 37.0411 156.861 37.5009 156.29 38.1178C155.732 38.7231 155.452 39.5495 155.452 40.5971C155.452 42.0288 155.982 43.1113 157.041 43.8446C158.112 44.5662 159.468 44.9271 161.109 44.9271ZM184.414 31.8672V48H180.293V21.1818H184.274V25.3722H184.623C185.252 24.0103 186.206 22.9162 187.487 22.0897C188.767 21.2517 190.42 20.8326 192.445 20.8326C194.261 20.8326 195.85 21.2051 197.212 21.95C198.573 22.6834 199.633 23.8008 200.389 25.3023C201.146 26.7922 201.524 28.6779 201.524 30.9593V48H197.404V31.2386C197.404 29.1318 196.857 27.4906 195.762 26.315C194.668 25.1277 193.167 24.5341 191.258 24.5341C189.943 24.5341 188.767 24.8193 187.731 25.3896C186.707 25.96 185.898 26.7922 185.304 27.8864C184.71 28.9805 184.414 30.3074 184.414 31.8672Z" fill="white"/>
</g>
<g filter="url(#filter3_d_203_15)">
<path d="M126.4 211.842H134.5C135.932 211.842 137.306 212.408 138.318 213.414C139.331 214.421 139.9 215.787 139.9 217.211V230.632C139.9 232.055 139.331 233.421 138.318 234.428C137.306 235.434 135.932 236 134.5 236H126.4C124.968 236 123.594 235.434 122.582 234.428C121.569 233.421 121 232.055 121 230.632V211.842C121 197.017 133.088 185 148 185C162.912 185 175 197.017 175 211.842V230.632C175 232.055 174.431 233.421 173.418 234.428C172.406 235.434 171.032 236 169.6 236H161.5C160.068 236 158.694 235.434 157.682 234.428C156.669 233.421 156.1 232.055 156.1 230.632V217.211C156.1 215.787 156.669 214.421 157.682 213.414C158.694 212.408 160.068 211.842 161.5 211.842H169.6C169.6 206.147 167.324 200.685 163.274 196.658C159.223 192.631 153.729 190.368 148 190.368C142.271 190.368 136.777 192.631 132.726 196.658C128.676 200.685 126.4 206.147 126.4 211.842Z" fill="white"/>
</g>
<defs>
<filter id="filter0_d_203_15" x="0" y="63" width="296" height="296" filterUnits="userSpaceOnUse" color-interpolation-filters="sRGB">
<feFlood flood-opacity="0" result="BackgroundImageFix"/>
<feColorMatrix in="SourceAlpha" type="matrix" values="0 0 0 0 0 0 0 0 0 0 0 0 0 0 0 0 0 0 127 0" result="hardAlpha"/>
<feOffset/>
<feGaussianBlur stdDeviation="3"/>
<feComposite in2="hardAlpha" operator="out"/>
<feColorMatrix type="matrix" values="0 0 0 0 0 0 0 0 0 0 0 0 0 0 0 0 0 0 0.75 0"/>
<feBlend mode="normal" in2="BackgroundImageFix" result="effect1_dropShadow_203_15"/>
<feBlend mode="normal" in="SourceGraphic" in2="effect1_dropShadow_203_15" result="shape"/>
</filter>
<filter id="filter1_d_203_15" x="61.1704" y="354.591" width="176.343" height="46.7727" filterUnits="userSpaceOnUse" color-interpolation-filters="sRGB">
<feFlood flood-opacity="0" result="BackgroundImageFix"/>
<feColorMatrix in="SourceAlpha" type="matrix" values="0 0 0 0 0 0 0 0 0 0 0 0 0 0 0 0 0 0 127 0" result="hardAlpha"/>
<feOffset/>
<feGaussianBlur stdDeviation="3"/>
<feComposite in2="hardAlpha" operator="out"/>
<feColorMatrix type="matrix" values="0 0 0 0 0 0 0 0 0 0 0 0 0 0 0 0 0 0 0.75 0"/>
<feBlend mode="normal" in2="BackgroundImageFix" result="effect1_dropShadow_203_15"/>
<feBlend mode="normal" in="SourceGraphic" in2="effect1_dropShadow_203_15" result="shape"/>
</filter>
<filter id="filter2_d_203_15" x="86.7936" y="5.75354" width="120.731" height="48.875" filterUnits="userSpaceOnUse" color-interpolation-filters="sRGB">
<feFlood flood-opacity="0" result="BackgroundImageFix"/>
<feColorMatrix in="SourceAlpha" type="matrix" values="0 0 0 0 0 0 0 0 0 0 0 0 0 0 0 0 0 0 127 0" result="hardAlpha"/>
<feOffset/>
<feGaussianBlur stdDeviation="3"/>
<feComposite in2="hardAlpha" operator="out"/>
<feColorMatrix type="matrix" values="0 0 0 0 0 0 0 0 0 0 0 0 0 0 0 0 0 0 0.75 0"/>
<feBlend mode="normal" in2="BackgroundImageFix" result="effect1_dropShadow_203_15"/>
<feBlend mode="normal" in="SourceGraphic" in2="effect1_dropShadow_203_15" result="shape"/>
</filter>
<filter id="filter3_d_203_15" x="117" y="182" width="62" height="59" filterUnits="userSpaceOnUse" color-interpolation-filters="sRGB">
<feFlood flood-opacity="0" result="BackgroundImageFix"/>
<feColorMatrix in="SourceAlpha" type="matrix" values="0 0 0 0 0 0 0 0 0 0 0 0 0 0 0 0 0 0 127 0" result="hardAlpha"/>
<feOffset dy="1"/>
<feGaussianBlur stdDeviation="2"/>
<feComposite in2="hardAlpha" operator="out"/>
<feColorMatrix type="matrix" values="0 0 0 0 0 0 0 0 0 0 0 0 0 0 0 0 0 0 0.75 0"/>
<feBlend mode="normal" in2="BackgroundImageFix" result="effect1_dropShadow_203_15"/>
<feBlend mode="normal" in="SourceGraphic" in2="effect1_dropShadow_203_15" result="shape"/>
</filter>
</defs>
</svg>